<?xml version="1.0" standalone="no"?>
<!DOCTYPE svg PUBLIC "-//W3C//DTD SVG 1.1//EN" "http://www.w3.org/Graphics/SVG/1.1/DTD/svg11.dtd" >
<svg xmlns="http://www.w3.org/2000/svg">
<metadata>Generated by IcoMoon</metadata>
<defs>
<font id="icomoon" horiz-adv-x="1024">
<font-face units-per-em="1024" ascent="960" descent="-64" />
<missing-glyph horiz-adv-x="1024" />
<glyph unicode="&#x20;" horiz-adv-x="512" d="" />
<glyph unicode="&#xe001;" glyph-name="basket" d="M971.776 828.314c1.434 6.758 0.819 7.782-2.048 6.758-65.946-21.504-128.41 6.554-183.91-48.947l-244.736-242.278h143.974l286.72 284.467zM981.402 495.309h-940.442c-22.528 0-40.96-12.288-40.96-34.816v-47.104c0-22.528 26.010-39.322 48.538-39.322l67.789-387.277c4.506-27.853 31.334-50.586 59.392-50.586h670.925c28.058 0 54.886 22.733 59.392 50.586l67.789 387.277c22.528 0 47.309 16.998 47.309 39.322v47.104c0 22.323-17.203 34.816-39.731 34.816zM300.237 62.566c0-18.432-15.155-33.587-33.587-33.587s-33.587 15.155-33.587 33.587v280.781c0 18.432 15.155 33.587 33.587 33.587s33.587-15.155 33.587-33.587v-280.781zM459.981 62.566c0-18.432-15.155-33.587-33.587-33.587s-33.587 15.155-33.587 33.587v280.781c0 18.432 15.155 33.587 33.587 33.587s33.587-15.155 33.587-33.587v-280.781zM619.93 62.566c0-18.432-15.155-33.587-33.587-33.587s-33.587 15.155-33.587 33.587v280.781c0 18.432 15.155 33.587 33.587 33.587s33.587-15.155 33.587-33.587v-280.781zM779.674 62.566c0-18.432-15.155-33.587-33.587-33.587s-33.587 15.155-33.587 33.587v280.781c0 18.432 15.155 33.587 33.587 33.587s33.587-15.155 33.587-33.587v-280.781z" />
<glyph unicode="&#xe002;" glyph-name="bin" horiz-adv-x="856" d="M43.574 749.39v0l79.887-697.191c7.262-65.362 65.362-116.199 130.723-116.199h363.121c65.362 0 123.461 50.837 130.723 116.199l72.624 697.191h7.262c21.787 0 43.574 21.787 43.574 43.574s-21.787 43.574-43.574 43.574h-145.248c0 72.624-58.099 123.461-130.723 123.461h-254.184c-72.624 0-130.723-58.099-130.723-130.723h-123.461c-21.787 0-43.574-14.525-43.574-43.574s21.787-36.312 43.574-36.312zM254.184 836.539c0 21.787 21.787 43.574 43.574 43.574h254.184c21.787 0 43.574-14.525 43.574-43.574h-341.333zM726.241 749.39l-72.624-689.929c0-21.787-21.787-43.574-43.574-43.574h-363.121c-21.787 0-43.574 14.525-43.574 36.312l-72.624 689.929h595.518zM341.333 103.035c21.787 0 43.574 21.787 43.574 43.574v472.057c0 21.787-21.787 43.574-43.574 43.574s-43.574-21.787-43.574-43.574v-472.057c0-21.787 21.787-43.574 43.574-43.574zM515.631 103.035c21.787 0 43.574 21.787 43.574 43.574v472.057c0 21.787-21.787 43.574-43.574 43.574s-43.574-21.787-43.574-43.574v-472.057c0-21.787 14.525-43.574 43.574-43.574z" />
<glyph unicode="&#xe003;" glyph-name="calendar" d="M979.968 782.643h-89.088v83.558c0 15.36-11.878 27.853-26.829 27.853h-80.282c-14.746 0-26.624-12.493-26.624-27.853v-83.558h-490.291v83.558c0 15.36-11.878 27.853-26.829 27.853h-80.077c-14.746 0-26.624-12.493-26.624-27.853v-83.558h-89.293c-24.576 0-44.646-20.070-44.646-44.646v-178.176h1025.024v178.176c0 24.781-20.070 44.646-44.442 44.646zM-0.41-19.354c0-24.576 20.070-44.646 44.646-44.646h935.936c24.576 0 44.646 20.070 44.646 44.646v534.733h-1025.229v-534.733zM757.146 403.968c0 12.288 10.035 22.323 22.323 22.323h133.734c12.288 0 22.323-10.035 22.323-22.323v-133.734c0-12.288-10.035-22.323-22.323-22.323h-133.734c-12.288 0-22.323 10.035-22.323 22.323v133.734zM757.146 181.146c0 12.288 10.035 22.323 22.323 22.323h133.734c12.288 0 22.323-10.035 22.323-22.323v-133.734c0-12.288-10.035-22.323-22.323-22.323h-133.734c-12.288 0-22.323 10.035-22.323 22.323v133.734zM534.323 403.968c0 12.288 10.035 22.323 22.323 22.323h133.53c12.288 0 22.323-10.035 22.323-22.323v-133.734c0-12.288-10.035-22.323-22.323-22.323h-133.734c-12.288 0-22.323 10.035-22.323 22.323v133.734zM534.323 181.146c0 12.288 10.035 22.323 22.323 22.323h133.53c12.288 0 22.323-10.035 22.323-22.323v-133.734c0-12.288-10.035-22.323-22.323-22.323h-133.734c-12.288 0-22.323 10.035-22.323 22.323v133.734zM311.501 403.968c0 12.288 10.035 22.323 22.323 22.323h133.734c12.288 0 22.323-10.035 22.323-22.323v-133.734c0-12.288-10.035-22.323-22.323-22.323h-133.734c-12.288 0-22.323 10.035-22.323 22.323v133.734zM311.501 181.146c0 12.288 10.035 22.323 22.323 22.323h133.734c12.288 0 22.323-10.035 22.323-22.323v-133.734c0-12.288-10.035-22.323-22.323-22.323h-133.734c-12.288 0-22.323 10.035-22.323 22.323v133.734zM88.678 403.968c0 12.288 10.035 22.323 22.323 22.323h133.734c12.288 0 22.323-10.035 22.323-22.323v-133.734c0-12.288-10.035-22.323-22.323-22.323h-133.734c-12.288 0-22.323 10.035-22.323 22.323v133.734zM88.678 181.146c0 12.288 10.035 22.323 22.323 22.323h133.734c12.288 0 22.323-10.035 22.323-22.323v-133.734c0-12.288-10.035-22.323-22.323-22.323h-133.734c-12.288 0-22.323 10.035-22.323 22.323v133.734z" />
<glyph unicode="&#xe004;" glyph-name="checkmark2" d="M351.437-64c-23.757 0-46.694 9.421-63.693 26.419l-261.325 261.53c-35.226 35.226-35.226 92.16 0 127.181s92.16 35.226 127.181 0l197.837-197.837 518.963 518.963c35.226 35.226 92.16 35.226 127.181 0s35.226-92.16 0-127.181l-582.451-582.656c-16.794-16.998-39.731-26.419-63.693-26.419z" />
<glyph unicode="&#xe005;" glyph-name="chevron" d="M801.587-1.331c18.022 18.022 18.022 47.514 0 65.331l-382.362 382.771 382.362 382.771c18.022 18.022 18.022 47.514 0 65.536l-49.152 49.152c-18.022 18.022-47.514 18.022-65.536 0l-464.486-464.691c-18.022-18.022-18.022-47.514 0-65.536l464.691-464.691c18.022-18.022 47.514-18.022 65.536 0l48.947 49.357z" />
<glyph unicode="&#xe006;" glyph-name="clipboard" d="M910.336 915.558h-157.082c16.179-19.046 28.672-33.382 48.742-46.694 14.336-9.216 22.938-26.214 21.504-43.622l-0.205-3.072-0.614-3.072c-4.915-21.914-23.757-37.274-46.080-37.274h-529.203c-22.118 0-41.165 15.36-45.875 37.069l-0.614 2.662-0.205 2.662c-1.843 18.022 6.758 35.226 21.504 44.646 19.866 13.312 32.563 27.648 48.538 46.694h-157.082c-25.805 0-46.899-21.094-46.899-46.899v-885.76c0-25.805 21.094-46.899 46.899-46.899h796.672c25.805 0 46.899 21.094 46.899 46.899v885.76c0 25.805-21.094 46.899-46.899 46.899zM645.53 188.314c0-16.384-13.312-29.696-29.696-29.696h-341.402c-16.384 0-29.696 13.312-29.696 29.696v29.696c0 16.179 13.312 29.696 29.696 29.696h341.402c16.179 0 29.696-13.312 29.696-29.696v-29.696zM779.059 366.285c0-16.384-13.312-29.696-29.696-29.696h-474.931c-16.384 0-29.696 13.312-29.696 29.696v29.696c0 16.179 13.312 29.696 29.696 29.696h475.136c16.179 0 29.696-13.312 29.696-29.696v-29.696zM779.059 544.461c0-16.384-13.312-29.696-29.696-29.696h-474.931c-16.384 0-29.696 13.312-29.696 29.696v29.696c0 16.179 13.312 29.696 29.696 29.696h475.136c16.179 0 29.696-13.312 29.696-29.696v-29.696zM597.402 960c45.67 0 75.162-19.046 103.219-51.61 27.034-30.925 43.213-54.886 77.21-77.21 0.614-0.41 1.229-1.638 1.229-2.662-0.205-1.024-1.229-2.048-2.458-2.048h-529.203c-1.229 0-2.253 1.024-2.458 2.048 0 1.024 0.614 2.253 1.229 2.662 33.792 22.528 50.176 46.285 77.005 77.21 28.058 32.563 57.754 51.61 103.424 51.61h170.803z" />
<glyph unicode="&#xe007;" glyph-name="close" d="M637.133 447.59l360.653 360.858c34.611 34.611 34.611 90.522 0 125.133-34.611 34.406-90.522 34.406-125.133-0.205l-360.653-360.653-360.653 360.653c-34.611 34.611-90.522 34.611-125.133 0s-34.406-90.522 0-124.928l360.653-360.653-360.653-360.858c-34.611-34.611-34.611-90.522 0-125.133 17.203-17.203 39.936-25.805 62.464-25.805s45.261 8.602 62.464 25.805l360.858 360.858 360.653-360.653c17.203-17.203 39.936-25.805 62.464-25.805s45.261 8.602 62.464 25.805c34.611 34.611 34.611 90.522 0 125.133l-360.448 360.448z" />
<glyph unicode="&#xe008;" glyph-name="down-chevron" d="M960.102 736.358c-18.022 18.022-47.514 18.022-65.331 0l-382.771-382.362-382.771 382.362c-18.022 18.022-47.514 18.022-65.536 0l-49.152-49.152c-18.022-18.022-18.022-47.514 0-65.536l464.691-464.486c18.022-18.022 47.514-18.022 65.536 0l464.691 464.691c18.022 18.022 18.022 47.514 0 65.536l-49.357 48.947z" />
<glyph unicode="&#xe009;" glyph-name="email" d="M753.664 378.573c-31.334-23.757-61.44-43.622-92.16-60.826-44.237-24.576-89.293-41.574-137.83-52.634-10.65-2.458-23.347 0-23.347 0-48.538 10.854-93.594 28.058-137.83 52.634-30.72 16.998-60.826 36.864-92.16 60.826-101.376 77.619-164.659 119.603-218.112 144.794-7.168 3.482-31.13 15.974-52.224 27.238v-571.802c0-23.552 19.251-42.803 42.598-42.803h938.598c23.347 0 42.598 19.251 42.598 42.598v572.006c-20.89-11.264-45.056-23.757-52.224-27.238-53.248-25.19-116.531-67.174-217.907-144.794zM981.402 746.598h-938.803c-23.347 0-42.598-19.046-42.598-42.598v-50.176c31.13-16.794 67.789-36.25 74.957-39.526 56.73-26.624 122.88-70.246 227.738-150.528 28.467-21.709 56.525-40.346 85.606-56.525 38.093-21.094 78.643-47.104 123.699-47.104 46.285 0 85.606 26.010 123.699 47.104 29.082 16.179 57.344 34.816 85.606 56.525 104.858 80.282 171.008 123.904 227.738 150.528 7.168 3.482 43.827 22.733 74.957 39.526v50.176c0 23.552-19.251 42.598-42.598 42.598z" />
<glyph unicode="&#xe00a;" glyph-name="external-link" horiz-adv-x="768" d="M640 192h-512v510.094l128 1.906v128h-256v-768h768v320h-128v-192zM384 832l128-128-192-192 128-128 192 192 128-128v384h-384z" />
<glyph unicode="&#xe00b;" glyph-name="hamburger" d="M1025.638 355.43c0 24.371-21.299 45.67-45.67 45.67h-935.936c-24.371 0-45.67-21.299-45.67-45.67v-94.208c0-24.371 21.299-45.67 45.67-45.67h935.936c24.371 0 45.67 21.299 45.67 45.67-0.205 0-0.205 94.208 0 94.208zM1025.638 637.85c0 24.371-21.299 45.67-45.67 45.67h-935.936c-24.371 0-45.67-21.299-45.67-45.67v-94.208c0-24.371 21.299-45.67 45.67-45.67h935.936c24.371 0 45.67 21.299 45.67 45.67-0.205 0-0.205 94.208 0 94.208zM1025.638 75.878c0 24.371-21.299 45.67-45.67 45.67h-935.936c-24.371 0-45.67-21.299-45.67-45.67v-94.208c0-24.371 21.299-45.67 45.67-45.67h935.936c24.371 0 45.67 21.299 45.67 45.67-0.205 0-0.205 94.208 0 94.208z" />
<glyph unicode="&#xe00c;" glyph-name="lock" d="M853.197 520.909h-48.742v146.227c0 161.382-131.277 292.659-292.659 292.659s-292.454-131.277-292.454-292.659v-146.227h-48.947c-27.034 0-48.742-21.709-48.742-48.742v-487.629c0-27.034 21.709-48.742 48.742-48.742h682.598c26.829 0 48.742 21.914 48.742 48.742v487.629c0.205 26.829-21.709 48.742-48.538 48.742zM560.538 130.765c0-26.829-21.914-48.742-48.742-48.742s-48.742 21.914-48.742 48.742v194.97c0 26.829 21.914 48.742 48.742 48.742s48.742-21.914 48.742-48.742v-194.97zM658.022 520.909h-292.454v146.227c0 80.691 65.536 146.227 146.227 146.227s146.227-65.536 146.227-146.227v-146.227z" />
<glyph unicode="&#xe00d;" glyph-name="map-marker" d="M512 952.832c-212.582 0-384.819-172.442-384.819-385.024 0-79.462 24.166-153.19 65.331-214.426v0l0.205-0.41c0.614-0.819 1.229-1.434 1.638-2.253l317.645-414.72 332.39 441.139c32.563 56.525 52.429 121.037 52.429 190.874 0 212.378-172.237 384.819-384.819 384.819zM512 418.304c-82.739 0-149.709 66.97-149.709 149.709s66.97 149.709 149.709 149.709c82.739 0 149.709-66.97 149.709-149.709s-66.97-149.709-149.709-149.709z" />
<glyph unicode="&#xe00e;" glyph-name="minus" d="M949.248 375.091h-874.496c-40.141 0-72.704 32.768-72.704 72.909s32.563 72.909 72.909 72.909h874.291c40.346 0 72.909-32.563 72.909-72.909s-32.768-72.909-72.909-72.909z" />
<glyph unicode="&#xe00f;" glyph-name="mobile" d="M745.677 960h-467.354c-67.584 0-122.47-54.886-122.47-122.47v-779.059c0-67.379 54.886-122.47 122.47-122.47h467.354c67.379 0 122.47 54.886 122.47 122.47v779.059c0 67.584-54.886 122.47-122.47 122.47zM244.941 137.728v595.763h534.118v-595.763h-534.118z" />
<glyph unicode="&#xe010;" glyph-name="offer-corner" d="M1015.603 960h-1015.603v-437.658h244.531c218.931 0 323.379 74.547 452.813 191.488 0 0 189.030 176.538 318.464 233.882 12.288 4.71 9.626 12.288-0.205 12.288z" />
<glyph unicode="&#xe011;" glyph-name="phone" d="M192.102 960c63.898-31.949 159.949-192.102 192.102-256 0-31.949-96.051-128-96.051-159.949 31.744-96.051 223.846-288.154 319.898-320.102 31.949 0 128 96.051 159.949 96.051 63.898-31.949 192.102-128 256-192.102 0-63.898-128-192.102-192.102-192.102-319.898 64.102-768 512.205-831.898 832.102 0 64.102 128 192.102 192.102 192.102z" />
<glyph unicode="&#xe012;" glyph-name="ping" d="M881.254 817.254c190.464-190.464 190.464-499.098 0-689.562-97.894-97.894-227.328-145.408-355.738-142.541h-232.653c-109.363 0-172.032-16.589-270.746-46.694l-1.843-0.614c-5.939-2.048-9.83-2.048-12.902-1.229-1.638 0.614-4.301 2.458-4.301 2.458s-1.843 2.662-2.458 4.301c-0.819 3.072-0.614 6.963 1.434 12.902l0.614 1.843c29.901 98.714 46.49 161.382 46.49 270.746v232.653c-2.867 128.41 44.646 257.638 142.541 355.533 190.464 190.464 499.098 190.669 689.562 0.205z" />
<glyph unicode="&#xe013;" glyph-name="plus" d="M949.862 520.909h-364.954v364.954c0 40.346-32.768 72.909-72.909 72.909s-72.909-32.768-72.909-72.909v-364.954h-364.954c-40.346 0-72.909-32.768-72.909-72.909s32.768-73.114 72.909-73.114h364.954v-364.954c0-40.346 32.768-72.909 72.909-72.909s72.909 32.563 72.909 72.909v365.158h364.954c40.346 0 72.909 32.768 72.909 73.114s-32.563 72.704-72.909 72.704z" />
<glyph unicode="&#xe014;" glyph-name="pointer_chevron" horiz-adv-x="3640" d="M0 960c960.846-148.863 1822.449-1024 1822.449-1024s839.048 875.137 1817.938 1024h-3640.388z" />
<glyph unicode="&#xe015;" glyph-name="question" d="M494.182-64c-62.874 0-113.869 50.79-113.869 113.869 0 62.874 50.79 113.869 113.869 113.869 62.874 0 113.869-50.995 113.869-113.869 0-63.078-50.995-113.869-113.869-113.869zM715.981 544.461l-63.693-84.173c-53.862-68.608-131.686-141.722-131.686-141.722-32.768-27.034-71.27-70.861-98.304-126.157v162.202c0 54.886 25.19 100.352 58.368 143.77l94.618 121.446c20.48 26.829 37.069 57.549 37.069 85.606 0 60.211-39.731 104.858-103.629 104.858-58.982 0-91.955-44.646-99.533-95.027-0.205-1.638-0.41-3.482-0.614-5.325-2.253-9.83-11.059-17.203-21.709-17.203h-119.398c-12.288 0-22.323 22.323-22.323 22.323 0.614 8.602 1.434 17.203 2.867 25.395 20.89 132.301 128 219.546 260.915 219.546 144.384 0 269.722-93.389 269.722-255.59 0-64.102-26.829-112.64-62.669-159.949z" />
<glyph unicode="&#xe016;" glyph-name="ribbon" d="M597.197 337.818c110.182 0 161.382 37.069 227.942 96.051 0 0 94.822 89.498 160.154 117.76 6.349 2.458 5.12 6.349 0 6.349h-585.318c-96.051 0-172.851-53.658-210.125-93.389 0 0-92.16-90.931-153.805-121.651-2.662-1.229-2.662-5.12 1.229-5.12z" />
<glyph unicode="&#xe017;" glyph-name="search2" d="M367.206 771.789c147.456 0 267.674-120.422 267.674-267.878s-120.218-267.674-267.674-267.674-267.878 120.218-267.878 267.674 120.422 267.878 267.878 267.878zM367.206 874.189c-201.523 0-367.206-165.478-367.206-367.206s165.478-367.206 367.206-367.206 370.074 162.611 370.074 367.206-165.478 367.206-370.074 367.206v0zM1023.181-61.747l-325.018 325.018c-27.034-36.045-60.211-69.222-99.328-96.256l171.622-171.622c75.162-69.222 159.334-30.106 252.723-57.139 0-3.072 0-3.072 0 0z" />
<glyph unicode="&#xe018;" glyph-name="share" d="M659.866 133.018c-19.456 0-35.021-15.77-35.021-35.021v-48.742c0-23.757-19.251-43.008-43.008-43.008h-468.582c-23.757 0-43.008 19.251-43.008 43.008v463.667c0 23.757 19.251 43.008 43.008 43.008h468.582c23.757 0 43.008-19.251 43.008-43.008v-73.318c0-19.456 15.77-35.021 35.021-35.021s35.021 15.77 35.021 35.021v73.318c0 62.464-50.79 113.254-113.254 113.254h-468.378c-62.464 0-113.254-50.79-113.254-113.254v-463.667c0-62.464 50.79-113.254 113.254-113.254h468.582c62.464 0 113.254 50.79 113.254 113.254v48.742c-0.205 19.456-15.77 35.021-35.226 35.021zM1024 271.872l-240.64 215.654v-176.538h-344.474c-21.504 0-39.117-17.408-39.117-39.117s17.408-39.117 39.117-39.117h344.474v-176.538l240.64 215.654z" />
<glyph unicode="&#xe019;" glyph-name="spinner" d="M577.741 856.576v-155.648c112.435-29.082 195.584-131.277 195.584-252.928 0-144.384-116.941-261.325-261.325-261.325s-261.325 116.941-261.325 261.325c0 121.651 83.149 223.846 195.584 252.928v155.648c-197.427-31.539-348.16-202.342-348.16-408.576 0-228.557 185.344-413.901 413.901-413.901s413.901 185.344 413.901 413.901c0 206.234-150.938 377.242-348.16 408.576z" />
<glyph unicode="&#xe01a;" glyph-name="tab-favourite" d="M552.029 178.548c-22.016 13.079-58.042 13.079-80.058 0l-179.898-106.775c-22.016-13.079-35.421-3.305-29.789 21.644l45.987 204.055c5.632 24.995-5.492 59.252-24.716 76.148l-157.137 138.054c-19.223 16.896-14.103 32.675 11.357 35.049l208.291 19.316c25.507 2.374 54.644 23.552 64.745 47.057l82.758 192.14c10.147 23.505 26.717 23.505 36.817 0l82.758-192.14c10.147-23.505 39.284-44.684 64.745-47.057l208.291-19.316c25.507-2.374 30.627-18.106 11.357-35.002l-157.137-138.054c-19.223-16.896-30.348-51.153-24.716-76.148l45.987-204.055c5.632-24.995-7.773-34.723-29.789-21.644l-179.852 106.729z" />
<glyph unicode="&#xe01b;" glyph-name="tab-information" d="M418.909 580.701v-566.877c0-43.008 50.223-77.824 93.137-77.824s93.044 34.816 93.044 77.824v566.877c0 42.961-50.129 77.777-93.044 77.777-42.915-0.047-93.137-34.816-93.137-77.777zM418.956 866.956c0-51.387 41.657-93.044 93.044-93.044s93.044 41.657 93.044 93.044c0 51.387-41.657 93.044-93.044 93.044s-93.044-41.657-93.044-93.044z" />
<glyph unicode="&#xe01c;" glyph-name="tab-ingredients" d="M110.266 660.666h803.468c39.098 0 70.703 31.604 70.703 70.703 0 39.052-31.651 70.703-70.703 70.703h-803.468c-39.052 0-70.749-31.604-70.749-70.703 0.047-39.052 31.697-70.703 70.749-70.703zM913.734 515.165h-803.468c-39.052 0-70.749-31.744-70.749-70.749 0-39.052 31.697-70.703 70.749-70.703h803.468c39.098 0 70.703 31.651 70.703 70.703 0 39.005-31.604 70.749-70.703 70.749zM644.143 228.259h-533.876c-39.052 0-70.749-31.744-70.749-70.749 0-39.052 31.697-70.703 70.749-70.703h533.876c39.098 0 70.703 31.697 70.703 70.703s-31.604 70.749-70.703 70.749z" />
<glyph unicode="&#xe01d;" glyph-name="tab-nutrition" d="M888.087 684.823c0.186 15.965-20.527 29.044-46.080 29.044h-281.274c-25.553 0-47.476 0-48.733 0s-23.18 0-48.733 0h-281.274c-25.553 0-46.266-13.079-46.080-29.044s19.968-36.305 43.892-45.196l163.514-60.649c23.924-8.89 41.472-36.957 38.912-62.371l-53.434-534.342c-2.56-25.46 10.612-46.266 29.277-46.266s40.308 19.875 48.128 44.218l91.601 284.998c7.82 24.297 20.62 24.297 28.439 0l91.601-284.998c7.82-24.297 29.463-44.218 48.128-44.218s31.837 20.806 29.277 46.22l-53.434 534.342c-2.56 25.414 14.988 53.481 38.912 62.371l163.468 60.649c23.924 8.89 43.706 29.231 43.892 45.242zM415.93 863.93c0-53.058 43.012-96.070 96.070-96.070s96.070 43.012 96.070 96.070c0 53.058-43.012 96.070-96.070 96.070s-96.070-43.012-96.070-96.070z" />
<glyph unicode="&#xe01e;" glyph-name="tab-switch-arrow" d="M-0.819 958.976c272.589-43.008 512.205-288.154 512.205-288.154s236.954 245.146 511.795 288.154h-1024z" />
<glyph unicode="&#xe01f;" glyph-name="tel" d="M964.198 162.304l-5.734 11.469c-15.974 37.478-211.763 94.413-227.738 95.642l-12.493-1.229c-23.962-4.506-50.176-26.214-101.376-70.656-10.24-9.011-23.962-11.469-36.454-4.506-67.174 37.478-149.094 112.64-190.259 158.31-44.442 48.947-97.894 129.843-122.88 194.765-4.506 12.493 0 26.214 9.011 35.226 58.163 52.429 83.149 77.414 85.402 104.858 1.229 15.974-32.973 217.498-68.403 236.954l-10.24 6.758c-22.528 14.746-56.73 36.454-94.208 28.467-9.011-2.253-18.227-5.734-26.214-10.24-24.986-15.974-87.654-59.392-116.122-115.098-16.998-35.226-24.986-355.328 214.016-625.254 236.954-267.469 529.613-278.938 572.826-269.722h1.229l3.482 1.229c59.187 21.709 109.363 77.414 128.614 101.376 35.226 41.984 11.264 93.184-2.458 121.651z" />
<glyph unicode="&#xe020;" glyph-name="truck" d="M275.866-64c43.418 0 78.643 35.226 78.643 78.848h-157.491c0-43.622 35.226-78.848 78.848-78.848zM787.866 93.696c-43.622 0-78.848-35.226-78.848-78.848s35.226-78.848 78.848-78.848c43.418 0 78.643 35.226 78.643 78.848s-35.226 78.848-78.643 78.848zM873.062 300.339c-37.069 109.773-24.986 135.987-82.125 147.661l-141.107 14.336-19.661 0.614v63.693c0 21.709-17.818 39.322-39.322 39.322h-551.526c-21.504 0.205-39.322-17.408-39.322-39.117v-433.152c0-21.709 17.818-39.322 39.322-39.322h637.542c16.179 45.466 59.597 78.234 110.797 78.234 50.995 0 94.413-32.768 110.592-78.234h92.979c16.794 0 32.768 15.565 32.768 32.768v151.757c0 39.117-48.128 43.827-150.938 61.44zM630.17 152.678c0-10.854-8.806-19.661-19.661-19.661h-426.803c-3.277 0-3.277 6.758 0 6.758 59.187 33.792 148.070 128.41 148.070 128.41 36.25 43.827 111.821 101.171 203.981 101.171h74.752c10.854 0 19.661-8.806 19.661-19.661v-197.018z" />
<glyph unicode="&#xe021;" glyph-name="user" d="M1024-64c-5.12 57.549-9.421 128.205-184.32 160.154-163.84 30.106-202.138 88.474-222.618 156.262-1.638 5.325-2.048 16.179-2.048 27.034 18.227 15.36 33.997 33.178 47.923 53.043 20.275 29.082 34.816 60.621 41.165 95.846 0.205 1.434 0.41 2.867 0.614 4.301 0.205 1.229 0.41 2.458 0.614 4.096 10.24 0.614 17.613 5.734 23.962 12.698 8.192 9.011 13.517 19.661 17.408 30.925 6.963 19.251 12.083 38.912 12.902 59.597 0.205 4.915-0.41 10.24-1.638 15.155-2.458 9.421-8.397 12.698-18.227 10.65-0.614-0.205-1.434-0.205-2.458-0.614 1.229 8.602 2.662 16.589 3.686 24.781 5.939 45.67 8.192 137.216-12.493 178.586-19.046 37.683-71.066 109.568-216.474 109.568s-197.427-71.885-216.269-109.568c-20.89-41.574-18.432-133.12-12.493-178.586 1.024-8.192 2.458-16.384 3.686-24.781-1.229 0.205-1.843 0.41-2.458 0.614-9.626 2.048-15.77-1.229-18.022-10.65-1.229-4.915-1.843-10.035-1.638-15.155 0.819-20.48 5.734-40.346 12.698-59.597 4.096-11.264 9.421-21.914 17.613-30.925 6.144-6.963 13.517-12.083 23.962-12.698 0.205-1.434 0.41-2.662 0.614-4.096s0.41-2.867 0.614-4.301c6.144-35.021 20.685-66.56 41.165-95.846 13.926-19.866 29.696-37.683 47.923-53.043-0.205-10.854-0.41-21.504-2.048-26.829-20.48-67.789-58.982-126.157-222.618-156.262-175.309-32.154-179.61-102.81-184.73-160.358h1024z" />
<glyph unicode="&#xe022;" glyph-name="warning" d="M512 960c-282.829 0-512-229.171-512-512s229.171-512 512-512 512 229.171 512 512-229.171 512-512 512zM554.803 742.298c16.998 0 33.587-9.626 33.587-31.334v0c0 0 0 0 0 0.205l-6.144-368.845h-108.544c-16.589 0-31.13 7.782-31.13 28.058l-5.734 285.696c-1.229 35.021-7.782 62.054-20.48 86.63h138.445zM577.126 142.438c-15.77-15.77-38.502-25.805-64.717-25.805s-48.538 10.035-64.307 25.805-24.986 37.274-24.986 61.235c0 25.395 9.216 47.718 24.986 63.898s38.093 26.214 64.307 26.214 48.947-10.035 64.717-26.214c15.77-16.179 24.986-38.502 24.986-63.898-0.205-23.962-9.216-45.466-24.986-61.235z" />
<glyph unicode="&#xe602;" glyph-name="uniE602" d="M0 240q0 19 14 33l465 465q14 14 33 14t33-14l465-465q14-14 14-33t-14-33l-49-49q-14-14-32.5-14t-32.5 14l-384 383-384-383q-14-14-32.5-14t-32.5 14l-49 49q-14 14-14 33z" />
<glyph unicode="&#xe605;" glyph-name="uniE605" d="M208 31.5q0 18.5 14 32.5l383 384-383 384q-14 14-14 32.5t14 32.5l49 49q14 14 33 14t33-14l465-465q14-14 14-33t-14-33l-465-465q-14-14-33-14t-33 14l-49 49q-14 14-14 32.5z" />
<glyph unicode="&#xe606;" glyph-name="uniE606" d="M575.87-64h-191.87v512h-128v176.45l128 0.058-0.208 103.952c0 143.952 39.034 231.54 208.598 231.54h141.176v-176.484h-88.23c-66.032 0-69.206-24.656-69.206-70.684l-0.262-88.324h158.69l-18.704-176.45-139.854-0.058-0.13-512z" />
<glyph unicode="&#xe607;" glyph-name="uniE607" d="M1024 765.582c-37.676-16.708-78.164-28.002-120.66-33.080 43.372 26 76.686 67.17 92.372 116.23-40.596-24.078-85.556-41.56-133.41-50.98-38.32 40.83-92.922 66.34-153.346 66.34-116.022 0-210.088-94.058-210.088-210.078 0-16.466 1.858-32.5 5.44-47.878-174.6 8.764-329.402 92.4-433.018 219.506-18.084-31.028-28.446-67.116-28.446-105.618 0-72.888 37.088-137.192 93.46-174.866-34.438 1.092-66.832 10.542-95.154 26.278-0.020-0.876-0.020-1.756-0.020-2.642 0-101.788 72.418-186.696 168.522-206-17.626-4.8-36.188-7.372-55.348-7.372-13.538 0-26.698 1.32-39.528 3.772 26.736-83.46 104.32-144.206 196.252-145.896-71.9-56.35-162.486-89.934-260.916-89.934-16.958 0-33.68 0.994-50.116 2.94 92.972-59.61 203.402-94.394 322.042-94.394 386.422 0 597.736 320.124 597.736 597.744 0 9.108-0.206 18.168-0.61 27.18 41.056 29.62 76.672 66.62 104.836 108.748z" />
<glyph unicode="&#xe900;" glyph-name="google-plus" d="M325.8 502.6v-111.8h184.8c-7.4-48-55.8-140.6-184.8-140.6-111.2 0-202 92.2-202 205.8s90.8 205.8 202 205.8c63.4 0 105.6-27 129.8-50.2l88.4 85.2c-56.8 53-130.4 85.2-218.2 85.2-180.2-0.2-325.8-145.8-325.8-326s145.6-325.8 325.8-325.8c188 0 312.8 132.2 312.8 318.4 0 21.4-2.4 37.8-5.2 54h-307.6zM1024 512h-96v96h-96v-96h-96v-96h96v-96h96v96h96z" />
<glyph unicode="&#xe903;" glyph-name="youtube" d="M1013.8 652.8c0 0-10 70.6-40.8 101.6-39 40.8-82.6 41-102.6 43.4-143.2 10.4-358.2 10.4-358.2 10.4h-0.4c0 0-215 0-358.2-10.4-20-2.4-63.6-2.6-102.6-43.4-30.8-31-40.6-101.6-40.6-101.6s-10.2-82.8-10.2-165.8v-77.6c0-82.8 10.2-165.8 10.2-165.8s10-70.6 40.6-101.6c39-40.8 90.2-39.4 113-43.8 82-7.8 348.2-10.2 348.2-10.2s215.2 0.4 358.4 10.6c20 2.4 63.6 2.6 102.6 43.4 30.8 31 40.8 101.6 40.8 101.6s10.2 82.8 10.2 165.8v77.6c-0.2 82.8-10.4 165.8-10.4 165.8zM406.2 315.2v287.8l276.6-144.4-276.6-143.4z" />
</font>
</defs>
</svg>
